<svg xmlns="http://www.w3.org/2000/svg" viewBox="0 0 700 450">
  
  <rect width="700" height="450" fill="#ffffff"></rect>
  
  
  <text x="350" y="30" text-anchor="middle" font-family="Arial" font-size="16" font-weight="bold" fill="#333">MDM - Mobile Device Management</text>
  
  
  <g transform="translate(300, 80)">
    <rect x="0" y="0" width="100" height="70" rx="8" fill="#e3f2fd" stroke="#1976d2" stroke-width="2"></rect>
    <rect x="35" y="10" width="30" height="35" rx="3" fill="#1976d2"></rect>
    <line x1="40" y1="20" x2="60" y2="20" stroke="#fff" stroke-width="2"></line>
    <line x1="40" y1="27" x2="60" y2="27" stroke="#fff" stroke-width="2"></line>
    <line x1="40" y1="34" x2="60" y2="34" stroke="#fff" stroke-width="2"></line>
    <text x="50" y="60" text-anchor="middle" font-family="Arial" font-size="10" font-weight="bold" fill="#1565c0">Servidor MDM</text>
  </g>
  
  
  <line x1="300" y1="115" x2="150" y2="200" stroke="#666" stroke-width="2"></line>
  <line x1="350" y1="150" x2="350" y2="200" stroke="#666" stroke-width="2"></line>
  <line x1="400" y1="115" x2="550" y2="200" stroke="#666" stroke-width="2"></line>
  
  
  <g transform="translate(100, 200)">
    <rect x="0" y="0" width="100" height="80" rx="8" fill="#f3e5f5" stroke="#7b1fa2" stroke-width="2"></rect>
    <rect x="35" y="10" width="30" height="45" rx="4" fill="#7b1fa2"></rect>
    <circle cx="50" cy="48" r="3" fill="#f3e5f5"></circle>
    <text x="50" y="70" text-anchor="middle" font-family="Arial" font-size="10" fill="#4a148c">Celular 1</text>
  </g>
  
  
  <g transform="translate(300, 200)">
    <rect x="0" y="0" width="100" height="80" rx="8" fill="#f3e5f5" stroke="#7b1fa2" stroke-width="2"></rect>
    <rect x="25" y="10" width="50" height="35" rx="3" fill="#7b1fa2"></rect>
    <circle cx="50" cy="38" r="2" fill="#f3e5f5"></circle>
    <text x="50" y="70" text-anchor="middle" font-family="Arial" font-size="10" fill="#4a148c">Tablet</text>
  </g>
  
  
  <g transform="translate(500, 200)">
    <rect x="0" y="0" width="100" height="80" rx="8" fill="#f3e5f5" stroke="#7b1fa2" stroke-width="2"></rect>
    <rect x="35" y="10" width="30" height="45" rx="4" fill="#7b1fa2"></rect>
    <circle cx="50" cy="48" r="3" fill="#f3e5f5"></circle>
    <text x="50" y="70" text-anchor="middle" font-family="Arial" font-size="10" fill="#4a148c">Celular 2</text>
  </g>
  
  
  <g transform="translate(50, 320)">
    <rect x="0" y="0" width="600" height="110" rx="10" fill="#ffebee" stroke="#c62828" stroke-width="2"></rect>
    <text x="300" y="25" text-anchor="middle" font-family="Arial" font-size="12" font-weight="bold" fill="#b71c1c">🔒 Funciones de Seguridad</text>
    
    
    <text x="30" y="50" font-family="Arial" font-size="10" fill="#333">• Bloqueo remoto</text>
    <text x="30" y="68" font-family="Arial" font-size="10" fill="#333">• Borrado remoto</text>
    <text x="30" y="86" font-family="Arial" font-size="10" fill="#333">• Políticas de contraseña</text>
    
    
    <text x="220" y="50" font-family="Arial" font-size="10" fill="#333">• Control de aplicaciones</text>
    <text x="220" y="68" font-family="Arial" font-size="10" fill="#333">• Cifrado obligatorio</text>
    <text x="220" y="86" font-family="Arial" font-size="10" fill="#333">• Geolocalización</text>
    
    
    <text x="420" y="50" font-family="Arial" font-size="10" fill="#333">• Modo kiosco</text>
    <text x="420" y="68" font-family="Arial" font-size="10" fill="#333">• VPN forzado</text>
    <text x="420" y="86" font-family="Arial" font-size="10" fill="#333">• Actualizaciones remotas</text>
  </g>
</svg>